<svg width="1440" height="252" viewBox="0 0 1440 252" fill="none" xmlns="http://www.w3.org/2000/svg">
<path d="M1062.12 76.6906C1255.72 1.49064 1389.45 60.3573 1432.12 99.1906C1459.32 76.3907 1536.45 124.024 1571.62 150.691L1597.62 304.691L45.6201 267.191C-0.879871 203.691 -65.9799 64.1906 45.6201 14.1906C185.12 -48.3094 347.62 113.691 606.62 150.691C865.62 187.691 820.12 170.691 1062.12 76.6906Z" fill="#B8DFD8"/>
<path d="M1150.5 133.5C1257.3 65.5 1435 49.1667 1495 48V281.5L-54 298.5V150.5C71 65 236.5 59.5 424.5 116C612.5 172.5 1017 218.5 1150.5 133.5Z" fill="#C1CFC0"/>
</svg>
