<svg width="23" height="23" viewBox="0 0 23 23" fill="none" xmlns="http://www.w3.org/2000/svg">
<path d="M16.8667 16.8666H15.3334V15.3333H16.8667V16.8666Z" fill="#232323"/>
<path d="M12.2667 16.8666H13.8001V15.3333H12.2667V16.8666Z" fill="#232323"/>
<path d="M19.9334 16.8666H18.4V15.3333H19.9334V16.8666Z" fill="#232323"/>
<path fill-rule="evenodd" clip-rule="evenodd" d="M4.6 9.2V5.36667C4.6 4.66191 4.73881 3.96405 5.00851 3.31293C5.27821 2.66182 5.67352 2.0702 6.17186 1.57186C6.6702 1.07352 7.26182 0.678213 7.91293 0.408513C8.56404 0.138813 9.2619 0 9.96667 0C10.6714 0 11.3693 0.138813 12.0204 0.408513C12.6715 0.678213 13.2631 1.07352 13.7615 1.57186C14.2598 2.0702 14.6551 2.66182 14.9248 3.31293C15.1945 3.96405 15.3333 4.66191 15.3333 5.36667V9.2H17.6333C18.2433 9.2 18.8283 9.44232 19.2597 9.87365C19.691 10.305 19.9333 10.89 19.9333 11.5V12.3433C20.7999 12.5193 21.579 12.9894 22.1386 13.6741C22.6981 14.3587 23.0038 15.2158 23.0038 16.1C23.0038 16.9842 22.6981 17.8413 22.1386 18.5259C21.579 19.2106 20.7999 19.6807 19.9333 19.8567V20.7C19.9333 21.31 19.691 21.895 19.2597 22.3263C18.8283 22.7577 18.2433 23 17.6333 23H2.3C1.69 23 1.10499 22.7577 0.673654 22.3263C0.242321 21.895 0 21.31 0 20.7L0 11.5C0 10.89 0.242321 10.305 0.673654 9.87365C1.10499 9.44232 1.69 9.2 2.3 9.2H4.6ZM6.13333 5.36667C6.13333 4.35 6.5372 3.37498 7.25609 2.65609C7.97498 1.9372 8.95 1.53333 9.96667 1.53333C10.9833 1.53333 11.9584 1.9372 12.6772 2.65609C13.3961 3.37498 13.8 4.35 13.8 5.36667V9.2H6.13333V5.36667ZM13.0333 13.8C12.4233 13.8 11.8383 14.0423 11.407 14.4737C10.9757 14.905 10.7333 15.49 10.7333 16.1C10.7333 16.71 10.9757 17.295 11.407 17.7263C11.8383 18.1577 12.4233 18.4 13.0333 18.4H19.1667C19.7767 18.4 20.3617 18.1577 20.793 17.7263C21.2243 17.295 21.4667 16.71 21.4667 16.1C21.4667 15.49 21.2243 14.905 20.793 14.4737C20.3617 14.0423 19.7767 13.8 19.1667 13.8H13.0333Z" fill="#232323"/>
</svg>
