<svg width="49" height="49" viewBox="0 0 49 49" fill="#fff" xmlns="http://www.w3.org/2000/svg">
<path d="M24.5002 4.0835C13.4323 4.0835 4.0835 13.4323 4.0835 24.5002C4.0835 35.568 13.4323 44.9168 24.5002 44.9168C35.568 44.9168 44.9168 35.568 44.9168 24.5002C44.9168 13.4323 35.568 4.0835 24.5002 4.0835ZM24.5002 14.2918C28.0261 14.2918 30.6252 16.8888 30.6252 20.4168C30.6252 23.9448 28.0261 26.5418 24.5002 26.5418C20.9762 26.5418 18.3752 23.9448 18.3752 20.4168C18.3752 16.8888 20.9762 14.2918 24.5002 14.2918ZM14.0754 34.243C15.9068 31.548 18.9611 29.7513 22.4585 29.7513H26.5418C30.0412 29.7513 33.0935 31.548 34.9249 34.243C32.3157 37.036 28.6141 38.7918 24.5002 38.7918C20.3862 38.7918 16.6847 37.036 14.0754 34.243Z" fill="#fff"/>
</svg>
